<?xml version="1.0" standalone="no"?>
<!DOCTYPE svg PUBLIC "-//W3C//DTD SVG 20010904//EN"
 "http://www.w3.org/TR/2001/REC-SVG-20010904/DTD/svg10.dtd">
<svg version="1.0" xmlns="http://www.w3.org/2000/svg"
 width="50.000000pt" height="50.000000pt" viewBox="0 0 256.000000 256.000000"
 preserveAspectRatio="xMidYMid meet">

<g transform="translate(0.000000,256.000000) scale(0.100000,-0.100000)"
fill="#000000" stroke="none">
<path d="M1110 2436 c-284 -60 -509 -238 -629 -498 -62 -132 -76 -201 -76
-368 0 -167 14 -236 76 -368 86 -185 225 -329 406 -421 l62 -31 3 -204 c4
-238 -3 -223 119 -288 57 -31 81 -51 93 -75 45 -95 197 -96 237 -3 10 23 35
44 91 77 122 70 118 61 118 294 l0 199 63 31 c181 92 320 235 406 421 62 132
76 201 76 368 0 167 -14 236 -76 368 -66 143 -177 276 -302 361 -66 45 -198
105 -277 126 -88 23 -304 29 -390 11z m403 -50 c287 -85 495 -292 584 -583 23
-78 26 -104 26 -233 0 -129 -3 -155 -26 -233 -73 -238 -225 -420 -444 -531
-44 -22 -65 -26 -138 -26 l-85 0 0 453 c0 250 -3 457 -7 461 -4 3 -24 -13 -45
-36 l-37 -43 -1 36 c0 20 -3 39 -7 43 -4 4 -25 -12 -45 -36 l-37 -43 -1 37 c0
20 -4 39 -9 42 -5 4 -32 -23 -60 -58 l-51 -64 0 -396 0 -396 -85 0 c-73 0 -94
4 -138 26 -372 189 -556 603 -442 997 92 319 347 546 682 607 88 16 269 4 366
-24z m-280 -825 c7 0 27 18 45 41 l32 40 0 -41 c0 -52 18 -54 54 -6 15 19 31
35 36 35 6 0 9 -165 7 -422 l-2 -423 -125 0 -125 0 -3 378 c-3 395 -3 393 42
448 l21 25 3 -38 c2 -21 8 -38 15 -37z m347 -841 l0 -30 -300 0 -300 0 0 23
c0 13 3 27 7 30 3 4 138 7 300 7 l293 0 0 -30z m0 -100 l0 -30 -300 0 -300 0
0 30 0 30 300 0 300 0 0 -30z m0 -90 l0 -30 -300 0 -300 0 0 30 0 30 300 0
300 0 0 -30z m0 -100 l0 -30 -300 0 -300 0 0 30 0 30 300 0 300 0 0 -30z
m-200 -228 c0 -20 -51 -54 -87 -59 -32 -4 -45 0 -71 22 -18 15 -32 31 -32 36
0 5 43 9 95 9 52 0 95 -4 95 -8z"/>
<path d="M1345 2270 c-7 -12 0 -15 80 -29 189 -34 378 -201 467 -413 31 -73
67 -222 68 -275 0 -37 9 -63 21 -63 14 0 10 172 -6 249 -54 255 -241 468 -461
525 -70 18 -160 21 -169 6z"/>
<path d="M1945 1338 c-17 -59 -20 -138 -4 -138 18 0 39 68 39 130 0 33 -4 60
-10 60 -5 0 -16 -23 -25 -52z"/>
</g>
</svg>
