<?xml version="1.0" standalone="no"?>
<!DOCTYPE svg PUBLIC "-//W3C//DTD SVG 20010904//EN"
 "http://www.w3.org/TR/2001/REC-SVG-20010904/DTD/svg10.dtd">
<svg version="1.0" xmlns="http://www.w3.org/2000/svg"
 width="662.000000pt" height="980.000000pt" viewBox="0 0 662.000000 980.000000"
 preserveAspectRatio="xMidYMid meet">

<g transform="translate(0.000000,980.000000) scale(0.100000,-0.100000)"
fill="#000000" stroke="none">
<path d="M3070 9789 c-117 -9 -381 -53 -525 -88 -66 -16 -84 -25 -107 -53 -65
-79 -229 -431 -327 -706 -92 -258 -245 -831 -227 -849 11 -12 398 -21 889 -22
l427 -1 0 865 c0 476 -3 864 -7 864 -5 -1 -60 -6 -123 -10z"/>
<path d="M3450 8936 l0 -866 393 1 c460 1 913 11 923 21 9 9 -24 152 -92 401
-110 403 -177 582 -352 940 l-116 237 -50 16 c-116 34 -439 90 -638 109 l-68
7 0 -866z"/>
<path d="M4620 9569 c0 -6 30 -77 66 -157 153 -337 242 -676 375 -1422 102
-575 144 -1026 143 -1545 0 -505 -39 -887 -145 -1425 -86 -440 -277 -1051
-463 -1483 l-17 -39 23 7 c89 26 333 171 500 297 132 100 324 275 514 471 635
651 854 1046 938 1693 9 66 25 226 36 357 11 131 22 266 26 300 21 211 -115
826 -273 1232 -54 140 -165 361 -230 460 -142 216 -454 531 -763 771 -165 128
-699 494 -721 494 -5 0 -9 -5 -9 -11z"/>
<path d="M1970 9507 c-286 -129 -543 -289 -760 -471 -118 -99 -369 -352 -468
-471 -135 -161 -325 -455 -307 -473 10 -10 599 -22 915 -20 l274 3 12 45 c7
25 31 124 54 220 97 402 238 807 376 1083 66 131 68 137 41 137 -12 -1 -74
-24 -137 -53z"/>
<path d="M277 7808 c-8 -18 -26 -60 -40 -94 -102 -240 -203 -693 -214 -961
l-6 -143 736 0 737 0 0 44 c0 182 34 653 71 975 14 124 16 178 9 185 -19 19
-178 24 -737 25 l-543 1 -13 -32z"/>
<path d="M1872 7833 c-23 -3 -36 -11 -42 -27 -31 -83 -112 -1136 -90 -1177 12
-22 245 -29 932 -29 l528 0 0 620 0 620 -647 -2 c-357 0 -663 -3 -681 -5z"/>
<path d="M3450 7220 l0 -620 578 1 c317 1 644 4 727 8 l150 6 5 29 c11 64 -20
563 -55 881 -24 212 -36 284 -53 297 -12 10 -160 14 -684 16 l-668 3 0 -621z"/>
<path d="M4 6329 c3 -24 8 -71 11 -104 31 -320 106 -636 222 -932 l56 -143
653 0 652 0 -8 33 c-28 102 -74 574 -91 927 -6 135 -13 246 -14 248 -2 2 -337
6 -745 9 l-742 6 6 -44z"/>
<path d="M1801 6363 l-64 -4 6 -192 c10 -304 73 -986 93 -1006 3 -3 311 -8
685 -9 l679 -4 0 611 0 611 -667 -2 c-368 -1 -697 -3 -732 -5z"/>
<path d="M3450 5760 l0 -611 670 3 c579 3 671 5 684 18 32 32 106 786 106
1081 l0 106 -97 6 c-54 4 -383 7 -730 7 l-633 0 0 -610z"/>
<path d="M570 4893 c-68 -2 -129 -8 -134 -13 -23 -23 252 -413 443 -628 218
-246 591 -529 929 -707 l152 -80 -157 -6 c-182 -6 -224 -19 -284 -86 -99 -110
-70 -273 61 -347 l55 -31 1392 -3 c1509 -3 1967 4 2021 32 42 22 88 85 108
151 16 50 16 56 0 106 -35 107 -66 138 -162 159 -27 6 -192 15 -367 19 -175 5
-320 10 -322 13 -3 3 14 47 38 99 107 230 212 512 293 787 52 177 136 523 129
531 -3 3 -300 7 -660 9 l-655 5 0 -722 0 -721 -125 0 -125 0 0 721 0 722 -655
-5 c-360 -2 -657 -7 -660 -10 -8 -7 69 -325 124 -514 81 -279 186 -565 293
-793 26 -57 48 -108 48 -112 0 -13 -244 2 -252 15 -18 27 -160 364 -208 491
-84 227 -190 599 -255 903 l-5 22 -468 -2 c-257 -1 -523 -4 -592 -5z"/>
<path d="M1680 2510 c-109 -7 -130 -16 -169 -71 -85 -117 -56 -301 54 -337 83
-27 324 -32 1868 -32 l1588 0 51 48 c63 58 88 110 88 182 0 65 -36 137 -95
188 l-36 32 -1627 -2 c-895 0 -1670 -4 -1722 -8z"/>
<path d="M1920 1363 c1 -259 10 -357 42 -422 29 -60 169 -199 231 -230 43 -21
70 -24 245 -33 109 -5 569 -7 1027 -5 903 4 914 5 1010 61 60 36 139 125 177
203 l33 67 3 211 c4 250 -2 329 -29 356 -19 19 -53 19 -1379 19 l-1360 0 0
-227z"/>
<path d="M2590 315 l0 -315 715 0 715 0 0 315 0 315 -715 0 -715 0 0 -315z"/>
</g>
</svg>
