<?xml version="1.0" standalone="no"?>
<!DOCTYPE svg PUBLIC "-//W3C//DTD SVG 20010904//EN"
 "http://www.w3.org/TR/2001/REC-SVG-20010904/DTD/svg10.dtd">
<svg version="1.0" xmlns="http://www.w3.org/2000/svg"
 width="1200.000000pt" height="1200.000000pt" viewBox="0 0 1200.000000 1200.000000"
 preserveAspectRatio="xMidYMid meet">

<g transform="translate(0.000000,1200.000000) scale(0.100000,-0.100000)"
fill="#000000" stroke="none">
<path d="M3035 11900 c-431 -7 -541 -15 -795 -61 -265 -47 -473 -114 -715
-233 -275 -135 -518 -312 -704 -512 -447 -479 -668 -1036 -711 -1787 -16 -290
-21 -1838 -13 -3895 l8 -1923 95 76 c400 321 893 603 1348 770 l103 38 -8 171
c-13 279 -9 2711 5 3016 26 561 54 777 138 1066 136 472 376 846 734 1146 381
319 868 501 1480 553 381 32 737 39 2010 39 1723 0 2075 -17 2495 -119 442
-107 786 -288 1084 -571 332 -316 539 -684 656 -1169 102 -423 119 -769 119
-2505 0 -1246 -6 -1602 -35 -1960 -56 -704 -267 -1226 -661 -1635 -419 -436
-926 -660 -1647 -730 -85 -8 -178 -15 -207 -15 l-54 0 26 -57 c205 -451 365
-973 449 -1467 l6 -38 507 5 c688 7 925 30 1290 127 618 165 1153 573 1484
1133 203 342 308 683 364 1177 17 145 18 366 18 3465 0 3101 -1 3320 -18 3465
-61 535 -187 913 -433 1289 -127 195 -367 450 -563 598 -423 319 -909 485
-1565 534 -172 13 -5587 21 -6290 9z"/>
<path d="M4910 9569 c-818 -11 -1094 -38 -1390 -136 -234 -77 -402 -177 -568
-337 -132 -127 -218 -242 -287 -381 -134 -272 -189 -528 -217 -1005 -14 -233
-19 -3112 -6 -3125 4 -4 35 -2 70 4 168 29 353 43 628 48 298 5 449 -2 700
-33 111 -14 404 -66 453 -80 12 -4 -4 22 -41 68 -201 245 -371 598 -441 914
-52 232 -66 548 -36 780 65 496 288 949 640 1299 330 330 739 542 1205 626
167 30 480 37 658 15 673 -86 1263 -463 1627 -1041 120 -191 236 -472 284
-691 68 -308 68 -681 0 -988 -73 -333 -249 -685 -477 -956 -387 -462 -977
-758 -1573 -788 l-127 -7 142 -107 c415 -314 806 -716 1108 -1141 l48 -67 64
0 c137 0 527 21 646 36 504 59 855 224 1117 522 181 208 294 450 356 767 66
334 72 519 72 2245 0 1521 -5 1749 -41 2040 -40 324 -134 600 -276 815 -71
108 -279 315 -389 388 -140 92 -318 168 -504 216 -216 54 -417 75 -865 91
-363 12 -1896 18 -2580 9z m3523 -724 c73 -10 200 -78 267 -145 76 -76 136
-195 150 -297 38 -275 -143 -531 -415 -588 -88 -18 -122 -18 -210 0 -367 77
-538 496 -331 809 86 128 233 213 401 229 32 3 60 1 138 -8z"/>
<path d="M5840 7444 c-81 -10 -238 -48 -319 -76 -481 -170 -833 -573 -943
-1081 -31 -147 -31 -427 0 -574 124 -577 558 -1011 1135 -1135 147 -31 427
-31 574 0 584 126 1012 558 1139 1152 26 120 26 420 0 540 -88 409 -305 731
-641 949 -143 94 -301 158 -490 201 -88 20 -367 35 -455 24z"/>
</g>
</svg>
