<?xml version="1.0" standalone="no"?>
<!DOCTYPE svg PUBLIC "-//W3C//DTD SVG 20010904//EN"
 "http://www.w3.org/TR/2001/REC-SVG-20010904/DTD/svg10.dtd">
<svg version="1.0" xmlns="http://www.w3.org/2000/svg"
 width="300.000000pt" height="300.000000pt" viewBox="0 0 880.000000 648.000000"
 preserveAspectRatio="xMidYMid meet">

<g transform="translate(0.000000,648.000000) scale(0.100000,-0.100000)"
fill="#000000" stroke="none">
<path d="M2037 6044 c-85 -20 -212 -90 -272 -149 -155 -151 -223 -376 -181
-597 20 -102 46 -167 100 -242 57 -79 108 -124 196 -170 92 -48 179 -67 314
-67 199 1 337 53 457 172 114 113 169 257 169 444 0 305 -174 547 -441 610
-80 19 -263 18 -342 -1z"/>
<path d="M1577 4483 c-4 -3 -7 -921 -7 -2040 l0 -2033 625 0 625 0 0 2040 0
2040 -618 0 c-340 0 -622 -3 -625 -7z"/>
<path d="M5715 4408 c-261 -15 -521 -101 -724 -241 -98 -68 -243 -208 -306
-296 -27 -38 -55 -70 -61 -70 -7 -1 -14 27 -17 67 -3 37 -14 158 -23 270 l-17
202 -570 0 -569 0 6 -182 c19 -547 26 -1150 26 -2380 l0 -1368 625 0 625 0 0
1163 c0 1328 -4 1263 85 1446 85 175 184 287 307 348 94 46 154 56 282 50 175
-8 272 -52 383 -171 92 -98 144 -209 186 -396 20 -93 21 -117 24 -1267 l4
-1173 624 0 625 0 0 1233 c0 779 -4 1274 -11 1347 -42 462 -196 830 -450 1075
-268 258 -606 369 -1054 343z"/>
</g>
</svg>
